<svg version="1.1" xmlns="http://www.w3.org/2000/svg" xmlns:xlink="http://www.w3.org/1999/xlink" x="0px" y="0px"
	 viewBox="0 0 1920 1080" style="enable-background:new 0 0 1920 1080;" xml:space="preserve">
<g id="back">
</g>
<g id="building">
	<polygon id="outer-wall" style="fill:none;stroke:#FFFFFF;stroke-width:7;stroke-miterlimit:10;" points="1528.9,255.7 1503.2,252 
		1502.2,258.9 1395.3,243.5 1396.2,237.6 1368.5,233.5 1367.6,239.5 1280.5,226.9 1281.4,221 1253.7,216.9 1252.8,222.9 
		1164.7,210.2 1165.6,204.2 1137.9,200.2 1137,206.1 1049.9,193.6 1050.8,187.6 1023.1,183.6 1022.2,189.5 934.1,176.8 935,170.9 
		907.3,166.9 906.4,172.8 819.3,160.2 820.2,154.3 792.5,150.3 791.6,156.2 703.5,143.5 704.4,137.5 676.7,133.5 675.8,139.5 
		587.7,126.7 588.6,120.8 560.9,116.8 560,122.7 454.1,107.4 455,101.5 435.2,98.6 416.4,95.9 414.5,108.7 410.8,134.5 418.7,135.6 
		403.4,241.5 395.5,240.4 391.5,268.1 399.4,269.2 386.8,356.3 378.9,355.2 374.9,382.9 382.8,384.1 361.8,529.5 353.8,528.4 
		349.8,556.1 357.7,557.3 345.2,644.3 337.2,643.2 333.2,670.9 341.1,672.1 325.7,778.9 317.8,777.8 315,796.7 312.2,816.4 
		331.1,819.1 350.8,822 352.1,813.1 460,828.7 459,835.6 486.7,839.6 487.7,832.7 574.8,845.3 573.8,852.2 601.5,856.2 602.5,849.3 
		690.6,862 689.6,868.9 717.3,872.9 718.3,866 805.4,878.6 804.4,885.5 832.1,889.5 833.1,882.6 921.2,895.4 920.2,902.3 
		947.9,906.3 948.9,899.4 1036,912 1035,918.9 1062.7,922.9 1063.7,916 1151.8,928.7 1150.8,935.6 1178.5,939.6 1179.5,932.7 
		1266.6,945.3 1265.6,952.2 1293.3,956.2 1294.3,949.3 1400.2,964.6 1399,972.5 1424.7,976.2 1437.6,978.1 1440.5,958.5 
		1443.2,939.5 1436.3,938.5 1451.6,832.6 1458.5,833.6 1462.5,805.9 1455.6,804.9 1468.2,717.8 1473.4,718.6 1475.1,718.8 
		1479.1,691.1 1475.2,690.5 1478,670.7 1475.1,670.3 1490.5,563.4 1493.5,563.8 1496.2,545 1500.2,545.6 1504.2,517.9 1502.4,517.6 
		1497.2,516.9 1509.8,429.8 1516.8,430.8 1520.8,403.1 1513.8,402.1 1529.3,295.2 1536.2,296.2 1539.9,270.5 1541.8,257.6 	"/>
	<g id="inside-walls">
		
			<rect id="XMLID_114_" x="604.5" y="432.4" transform="matrix(0.9897 0.1431 -0.1431 0.9897 85.5062 -124.1574)" style="fill:none;stroke:#FFFFFF;stroke-width:3;stroke-miterlimit:10;" width="603" height="200"/>
		
			<rect id="XMLID_136_" x="596.9" y="536.9" transform="matrix(0.9897 0.1431 -0.1431 0.9897 87.4769 -85.2522)" style="fill:none;stroke:#FFFFFF;stroke-width:3;stroke-miterlimit:10;" width="79" height="57.2"/>
		
			<rect id="XMLID_16_" x="611.4" y="393.7" transform="matrix(0.9897 0.1431 -0.1431 0.9897 73.1429 -86.9122)" style="fill:none;stroke:#FFFFFF;stroke-width:3;stroke-miterlimit:10;" width="58.9" height="142.7"/>
		
			<rect id="XMLID_145_" x="663.5" y="489.2" transform="matrix(0.9897 0.1431 -0.1431 0.9897 80.9489 -92.8969)" style="fill:none;stroke:#FFFFFF;stroke-width:3;stroke-miterlimit:10;" width="45.7" height="54.3"/>
		
			<rect id="XMLID_149_" x="736.2" y="551.9" transform="matrix(0.9897 0.1431 -0.1431 0.9897 91.0786 -102.6251)" style="fill:none;stroke:#FFFFFF;stroke-width:3;stroke-miterlimit:10;" width="45.7" height="60.1"/>
		
			<rect id="XMLID_148_" x="744.8" y="492.4" transform="matrix(0.9897 0.1431 -0.1431 0.9897 82.6522 -104.4686)" style="fill:none;stroke:#FFFFFF;stroke-width:3;stroke-miterlimit:10;" width="45.7" height="60.1"/>
		
			<rect id="XMLID_150_" x="753.4" y="432.9" transform="matrix(0.9897 0.1431 -0.1431 0.9897 74.2316 -106.3108)" style="fill:none;stroke:#FFFFFF;stroke-width:3;stroke-miterlimit:10;" width="45.7" height="60.1"/>
		
			<rect id="XMLID_151_" x="759.1" y="413.5" transform="matrix(0.9897 0.1431 -0.1431 0.9897 68.6361 -107.5349)" style="fill:none;stroke:#FFFFFF;stroke-width:3;stroke-miterlimit:10;" width="45.7" height="19.8"/>
		
			<rect id="XMLID_155_" x="844.4" y="567.5" transform="matrix(0.9897 0.1431 -0.1431 0.9897 94.4192 -117.9505)" style="fill:none;stroke:#FFFFFF;stroke-width:3;stroke-miterlimit:10;" width="45.7" height="59.9"/>
		
			<rect id="XMLID_154_" x="853" y="508" transform="matrix(0.9897 0.1431 -0.1431 0.9897 86.0044 -119.7915)" style="fill:none;stroke:#FFFFFF;stroke-width:3;stroke-miterlimit:10;" width="45.7" height="60.1"/>
		
			<rect id="XMLID_153_" x="861.6" y="448.5" transform="matrix(0.9897 0.1431 -0.1431 0.9897 77.5838 -121.6337)" style="fill:none;stroke:#FFFFFF;stroke-width:3;stroke-miterlimit:10;" width="45.7" height="60.1"/>
		
			<rect id="XMLID_152_" x="867.3" y="429.2" transform="matrix(0.9897 0.1431 -0.1431 0.9897 71.9883 -122.8578)" style="fill:none;stroke:#FFFFFF;stroke-width:3;stroke-miterlimit:10;" width="45.7" height="19.8"/>
		
			<rect id="XMLID_146_" x="669.1" y="465.6" transform="matrix(0.9897 0.1431 -0.1431 0.9897 75.4487 -94.1003)" style="fill:none;stroke:#FFFFFF;stroke-width:3;stroke-miterlimit:10;" width="45.7" height="23.8"/>
		
			<rect id="XMLID_147_" x="672.8" y="437.6" transform="matrix(0.9897 0.1431 -0.1431 0.9897 71.7986 -94.8988)" style="fill:none;stroke:#FFFFFF;stroke-width:3;stroke-miterlimit:10;" width="45.7" height="28.2"/>
		
			<rect id="XMLID_194_" x="908.9" y="437.9" transform="matrix(0.9897 0.1431 -0.1431 0.9897 77.2922 -130.8046)" style="fill:none;stroke:#FFFFFF;stroke-width:3;stroke-miterlimit:10;" width="78.4" height="68.2"/>
		
			<rect id="XMLID_195_" x="961" y="509.6" transform="matrix(0.9897 0.1431 -0.1431 0.9897 84.7893 -133.5088)" style="fill:none;stroke:#FFFFFF;stroke-width:3;stroke-miterlimit:10;" width="19.2" height="26.3"/>
		
			<rect id="XMLID_196_" x="955.6" y="535.5" transform="matrix(0.9897 0.1431 -0.1431 0.9897 90.1394 -132.3384)" style="fill:none;stroke:#FFFFFF;stroke-width:3;stroke-miterlimit:10;" width="19.2" height="50"/>
		
			<rect id="XMLID_54_" x="1017.4" y="457.2" transform="matrix(0.9897 0.1431 -0.1431 0.9897 80.3342 -149.9848)" style="fill:none;stroke:#FFFFFF;stroke-width:3;stroke-miterlimit:10;" width="131" height="52.6"/>
		<polygon id="XMLID_69_" style="fill:none;stroke:#FFFFFF;stroke-width:3;stroke-miterlimit:10;" points="1039.7,537.1 1009,532.6 
			1021.2,447.9 991.5,443.6 962.8,641.7 992.5,646 1000.7,590.1 1031.4,594.5 		"/>
		
			<rect id="XMLID_68_" x="1035.1" y="542.5" transform="matrix(0.9897 0.1431 -0.1431 0.9897 92.8352 -147.9199)" style="fill:none;stroke:#FFFFFF;stroke-width:3;stroke-miterlimit:10;" width="79.5" height="58"/>
		
			<rect id="XMLID_12_" x="993.5" y="632.8" transform="matrix(0.9897 0.1431 -0.1431 0.9897 102.8564 -143.4496)" style="fill:none;stroke:#FFFFFF;stroke-width:3;stroke-miterlimit:10;" width="110.5" height="21.3"/>
		
			<rect id="XMLID_3_" x="949.7" y="585" transform="matrix(0.9897 0.1431 -0.1431 0.9897 95.9068 -131.0766)" style="fill:none;stroke:#FFFFFF;stroke-width:3;stroke-miterlimit:10;" width="19.2" height="32.5"/>
		
			<rect id="XMLID_10_" x="945.7" y="617.2" transform="matrix(0.9897 0.1431 -0.1431 0.9897 99.806 -130.2236)" style="fill:none;stroke:#FFFFFF;stroke-width:3;stroke-miterlimit:10;" width="19.2" height="23.1"/>
	</g>
	<g id="highlights">
		
			<rect id="_x7B_color:red_x2C_title:Havas_London_x2C_description:An_agency_x7D_" x="414.6" y="719.3" transform="matrix(0.9897 0.1431 -0.1431 0.9897 116.6658 -71.556)" style="opacity:0.4;fill:#FFFFFF;" width="282.5" height="112"/>
		
			<rect id="room_7" x="414.5" y="117.8" transform="matrix(0.9897 0.1431 -0.1431 0.9897 38.7525 -63.3935)" style="opacity:0.4;fill:#FFFFFF;" width="91.2" height="239.8"/>
		
			<rect id="room_6" x="722.2" y="161" transform="matrix(0.9897 0.1431 -0.1431 0.9897 45.2372 -106.0931)" style="opacity:0.4;fill:#FFFFFF;" width="76" height="200.9"/>
		
			<rect id="room_5" x="507" y="263.2" transform="matrix(0.9897 0.1431 -0.1431 0.9897 49.2492 -78.4652)" style="opacity:0.4;fill:#FFFFFF;" width="126.4" height="80"/>
		
			<rect id="room_4" x="441" y="375.2" transform="matrix(0.9897 0.1431 -0.1431 0.9897 64.1831 -70.8566)" style="opacity:0.4;fill:#FFFFFF;" width="167.4" height="71.1"/>
		<polygon id="room_3" style="opacity:0.4;fill:#FFFFFF;" points="676.8,148.2 650.5,144.4 587,135.2 577.1,203.5 640.5,212.7 
			634.7,252.2 714.9,263.8 730.5,156 		"/>
		
			<rect id="room_2" x="822.2" y="752.4" transform="matrix(0.9897 0.1431 -0.1431 0.9897 128.3975 -136.0884)" style="opacity:0.4;fill:#FFFFFF;" width="376.3" height="144.5"/>
		
			<rect id="_x7B_color:red_x2C_title:Havas_Helia_x2C_description:An_agency_x7D_" x="1199.4" y="785.1" transform="matrix(0.9897 0.1431 -0.1431 0.9897 135.4113 -168.1481)" style="opacity:0.4;fill:#FFFFFF;" width="74.8" height="144.5"/>
	</g>
</g>
</svg>
