<svg version="1.1" xmlns="http://www.w3.org/2000/svg" xmlns:xlink="http://www.w3.org/1999/xlink" x="0px" y="0px"
	 viewBox="0 0 2303.9 1295.9" style="enable-background:new 0 0 2303.9 1295.9;" xml:space="preserve">
<g id="back">
	<rect id="XMLID_1_" y="0" style="fill:#050028;" width="2303.9" height="1296"/>
	
		<rect id="XMLID_28_" x="180.9" y="-75.9" transform="matrix(0.9003 0.4353 -0.4353 0.9003 109.4011 -270.9304)" style="opacity:0.1;fill:#FFFFFF;" width="930.4" height="358.5"/>
	
		<rect id="XMLID_30_" x="-9.1" y="291.7" transform="matrix(0.9003 0.4353 -0.4353 0.9003 258.6765 -149.6786)" style="opacity:0.1;fill:#FFFFFF;" width="930.4" height="396.3"/>
	
		<rect id="XMLID_33_" x="706.9" y="1072.5" transform="matrix(0.9003 0.4353 -0.4353 0.9003 636.4938 -275.3401)" style="opacity:0.1;fill:#FFFFFF;" width="424.9" height="358.5"/>
	
		<rect id="XMLID_32_" x="517.6" y="1464" transform="matrix(0.9003 0.4353 -0.4353 0.9003 788.0292 -153.9253)" style="opacity:0.1;fill:#FFFFFF;" width="424.9" height="358.5"/>
	
		<rect id="XMLID_34_" x="1724.2" y="580.8" transform="matrix(0.9003 0.4353 -0.4353 0.9003 697.6255 -741.2834)" style="opacity:0.1;fill:#FFFFFF;" width="485.6" height="1142.9"/>
	
		<rect id="XMLID_21_" x="1564" y="400.2" transform="matrix(0.9003 0.4353 -0.4353 0.9003 580.236 -589.9668)" style="opacity:0.1;fill:#FFFFFF;" width="28" height="1142.9"/>
	
		<rect id="XMLID_35_" x="862.6" y="307" transform="matrix(0.9003 0.4353 -0.4353 0.9003 311.5633 -718.8917)" style="opacity:0.1;fill:#FFFFFF;" width="1725" height="27.4"/>
</g>
<g id="building">
	<polygon id="outer-wall" style="fill:none;stroke:#FFFFFF;stroke-width:7;stroke-miterlimit:10;" points="1191.3,177.4 
		1183.3,194 1187.8,196.1 1154.5,265.2 1150.6,263.3 1142,281.2 1145.8,283.1 1118.7,339.3 1114.8,337.5 1106.2,355.4 1110,357.2 
		1082.6,414.1 1078.7,412.3 1070.1,430.2 1073.9,432 1046.8,488.3 1042.9,486.4 1034.3,504.3 1038.1,506.2 1010.7,563.1 
		1006.8,561.2 998.2,579.1 1002,581 974.9,637.2 971,635.4 962.4,653.3 966.2,655.1 938.7,712 934.9,710.2 926.3,728.1 930.1,729.9 
		902.6,786.8 898.8,785 890.2,802.9 894,804.7 861,873.1 857.1,871.3 851,884 845.1,896.2 853.3,900.2 870,908.3 872.5,903.1 
		940.9,936.2 938.4,941.3 956.3,949.9 958.8,944.8 1015.1,972 1012.6,977.1 1030.5,985.7 1033,980.6 1126.9,1026 1124.5,1031.1 
		1142.4,1039.7 1144.8,1034.6 1201.1,1061.8 1198.6,1066.9 1216.5,1075.5 1219,1070.4 1288,1103.7 1285.6,1108.9 1297.8,1114.7 
		1310.5,1120.9 1316.4,1108.7 1322.5,1096 1316.8,1093.2 1350.4,1023.5 1354.9,1025.7 1363.5,1007.8 1359.1,1005.6 1386.2,949.3 
		1390.7,951.5 1399.3,933.6 1394.9,931.4 1422.3,874.5 1426.8,876.7 1435.5,858.8 1431,856.6 1458.1,800.4 1462.6,802.5 
		1471.3,784.6 1466.8,782.5 1494.2,725.6 1498.7,727.7 1507.4,709.8 1502.9,707.7 1530,651.4 1534.5,653.6 1543.2,635.7 
		1538.7,633.5 1566.2,576.6 1570.6,578.8 1579.3,560.9 1574.8,558.7 1602,502.5 1606.4,504.6 1615.1,486.7 1610.6,484.6 
		1643.6,416.2 1648.7,418.6 1656.7,402.1 1660.8,393.7 1648.1,387.6 1635.8,381.7 1633.7,386.1 1565.3,353.1 1567.4,348.6 
		1549.5,340 1547.4,344.5 1491.1,317.3 1492.7,314 1493.3,312.8 1475.4,304.2 1474.1,306.8 1461.4,300.6 1460.4,302.5 1391.4,269.2 
		1392.3,267.3 1380.2,261.4 1381.4,258.8 1363.5,250.2 1363,251.3 1361.3,254.7 1305.1,227.5 1307.2,223 1289.3,214.4 1287.2,218.9 
		1218.1,185.5 1220.3,181.1 1203.7,173 1195.4,169 	"/>
	<g id="inside-walls">
		
			<rect id="XMLID_70_" x="1031.3" y="587.2" transform="matrix(0.4347 -0.9006 0.9006 0.4347 111.1642 1493.55)" style="fill:none;stroke:#FFFFFF;stroke-width:3;stroke-miterlimit:10;" width="428.1" height="142"/>
		
			<rect id="XMLID_69_" x="1182" y="827.4" transform="matrix(0.4347 -0.9006 0.9006 0.4347 -79.4152 1568.9558)" style="fill:none;stroke:#FFFFFF;stroke-width:3;stroke-miterlimit:10;" width="56.1" height="40.6"/>
		
			<rect id="XMLID_68_" x="1122.1" y="772.6" transform="matrix(0.4347 -0.9006 0.9006 0.4347 -95.305 1494.7178)" style="fill:none;stroke:#FFFFFF;stroke-width:3;stroke-miterlimit:10;" width="41.8" height="101.3"/>
		
			<rect id="XMLID_67_" x="1171.2" y="784.2" transform="matrix(0.4347 -0.9006 0.9006 0.4347 -52.3184 1523.5338)" style="fill:none;stroke:#FFFFFF;stroke-width:3;stroke-miterlimit:10;" width="32.4" height="38.5"/>
		
			<rect id="XMLID_66_" x="1231.2" y="746.9" transform="matrix(0.4347 -0.9006 0.9006 0.4347 13.2423 1557.6201)" style="fill:none;stroke:#FFFFFF;stroke-width:3;stroke-miterlimit:10;" width="32.4" height="42.7"/>
		
			<rect id="XMLID_65_" x="1192.7" y="728.4" transform="matrix(0.4347 -0.9006 0.9006 0.4347 8.2252 1512.516)" style="fill:none;stroke:#FFFFFF;stroke-width:3;stroke-miterlimit:10;" width="32.4" height="42.7"/>
		
			<rect id="XMLID_64_" x="1154.3" y="709.8" transform="matrix(0.4347 -0.9006 0.9006 0.4347 3.2116 1467.4427)" style="fill:none;stroke:#FFFFFF;stroke-width:3;stroke-miterlimit:10;" width="32.4" height="42.7"/>
		
			<rect id="XMLID_63_" x="1128.8" y="711.8" transform="matrix(0.4347 -0.9006 0.9006 0.4347 -0.1199 1437.4913)" style="fill:none;stroke:#FFFFFF;stroke-width:3;stroke-miterlimit:10;" width="32.4" height="14"/>
		
			<rect id="XMLID_62_" x="1264.9" y="677.1" transform="matrix(0.4347 -0.9006 0.9006 0.4347 95.2546 1548.4351)" style="fill:none;stroke:#FFFFFF;stroke-width:3;stroke-miterlimit:10;" width="32.4" height="42.6"/>
		
			<rect id="XMLID_61_" x="1226.5" y="658.5" transform="matrix(0.4347 -0.9006 0.9006 0.4347 90.2444 1503.3928)" style="fill:none;stroke:#FFFFFF;stroke-width:3;stroke-miterlimit:10;" width="32.4" height="42.7"/>
		
			<rect id="XMLID_60_" x="1188.1" y="639.9" transform="matrix(0.4347 -0.9006 0.9006 0.4347 85.2308 1458.3196)" style="fill:none;stroke:#FFFFFF;stroke-width:3;stroke-miterlimit:10;" width="32.4" height="42.7"/>
		
			<rect id="XMLID_59_" x="1162.5" y="641.9" transform="matrix(0.4347 -0.9006 0.9006 0.4347 81.8993 1428.3682)" style="fill:none;stroke:#FFFFFF;stroke-width:3;stroke-miterlimit:10;" width="32.4" height="14"/>
		
			<rect id="XMLID_58_" x="1146.2" y="782.9" transform="matrix(0.4347 -0.9006 0.9006 0.4347 -55.5933 1494.0924)" style="fill:none;stroke:#FFFFFF;stroke-width:3;stroke-miterlimit:10;" width="32.4" height="16.9"/>
		
			<rect id="XMLID_57_" x="1129.5" y="773.3" transform="matrix(0.4347 -0.9006 0.9006 0.4347 -57.7665 1474.5543)" style="fill:none;stroke:#FFFFFF;stroke-width:3;stroke-miterlimit:10;" width="32.4" height="20"/>
		
			<rect id="XMLID_56_" x="1185.6" y="592.6" transform="matrix(0.4347 -0.9006 0.9006 0.4347 130.4465 1441.4064)" style="fill:none;stroke:#FFFFFF;stroke-width:3;stroke-miterlimit:10;" width="55.6" height="48.4"/>
		
			<rect id="XMLID_55_" x="1245.8" y="603.1" transform="matrix(0.4347 -0.9006 0.9006 0.4347 156.5625 1474.2129)" style="fill:none;stroke:#FFFFFF;stroke-width:3;stroke-miterlimit:10;" width="13.6" height="18.7"/>
		
			<rect id="XMLID_54_" x="1270.2" y="606.4" transform="matrix(0.4347 -0.9006 0.9006 0.4347 159.7478 1502.8502)" style="fill:none;stroke:#FFFFFF;stroke-width:3;stroke-miterlimit:10;" width="13.6" height="35.5"/>
		
			<rect id="XMLID_53_" x="1203.6" y="509.3" transform="matrix(0.4347 -0.9006 0.9006 0.4347 231.1675 1424.2345)" style="fill:none;stroke:#FFFFFF;stroke-width:3;stroke-miterlimit:10;" width="93" height="37.4"/>
		<polygon id="XMLID_52_" style="fill:none;stroke:#FFFFFF;stroke-width:3;stroke-miterlimit:10;" points="1277.1,568.7 
			1267.5,588.5 1212.8,562.1 1203.5,581.3 1331.4,643.1 1340.7,623.9 1304.6,606.4 1314.2,586.6 		"/>
		
			<rect id="XMLID_22_" x="1279.7" y="531.7" transform="matrix(0.4347 -0.9006 0.9006 0.4347 241.95 1490.0195)" style="fill:none;stroke:#FFFFFF;stroke-width:3;stroke-miterlimit:10;" width="56.4" height="41.2"/>
		
			<rect id="XMLID_16_" x="1311.8" y="577.8" transform="matrix(0.4347 -0.9006 0.9006 0.4347 236.5632 1547.5007)" style="fill:none;stroke:#FFFFFF;stroke-width:3;stroke-miterlimit:10;" width="78.5" height="15.1"/>
		
			<rect id="XMLID_12_" x="1296.5" y="625.3" transform="matrix(0.4347 -0.9006 0.9006 0.4347 163.1817 1533.7217)" style="fill:none;stroke:#FFFFFF;stroke-width:3;stroke-miterlimit:10;" width="13.6" height="23.1"/>
		
			<rect id="XMLID_10_" x="1314.3" y="637.2" transform="matrix(0.4347 -0.9006 0.9006 0.4347 165.5033 1554.5929)" style="fill:none;stroke:#FFFFFF;stroke-width:3;stroke-miterlimit:10;" width="13.6" height="16.4"/>
	</g>
	<g id="highlights">
		
			<rect id="_x7B_color:red_x2C_title:Havas_London_x2C_description:An_agency_x7D__2_" x="1234.6" y="907.4" transform="matrix(0.4347 -0.9006 0.9006 0.4347 -98.4708 1737.5199)" style="opacity:0.4;fill:#FFFFFF;" width="200.5" height="79.5"/>
		
			<rect id="room_7_2_" x="918.1" y="811.8" transform="matrix(0.4347 -0.9006 0.9006 0.4347 -270.4943 1362.9646)" style="opacity:0.4;fill:#FFFFFF;" width="64.7" height="170.3"/>
		
			<rect id="room_6_2_" x="1003.8" y="627.6" transform="matrix(0.4347 -0.9006 0.9006 0.4347 -46.7507 1323.3037)" style="opacity:0.4;fill:#FFFFFF;" width="54" height="142.6"/>
		
			<rect id="room_5_2_" x="973.4" y="808.1" transform="matrix(0.4347 -0.9006 0.9006 0.4347 -177.683 1389.8726)" style="opacity:0.4;fill:#FFFFFF;" width="89.7" height="56.8"/>
		
			<rect id="room_4_2_" x="1022" y="865" transform="matrix(0.4347 -0.9006 0.9006 0.4347 -190.4289 1477.1284)" style="opacity:0.4;fill:#FFFFFF;" width="118.8" height="50.5"/>
		<polygon id="room_3_2_" style="opacity:0.4;fill:#FFFFFF;" points="936.2,731.2 928,748.1 908.2,789.1 952.3,810.4 972.1,769.5 
			997.7,781.9 1022.7,730.1 953,696.4 		"/>
		
			<rect id="room_2_2_" x="1331.9" y="598.8" transform="matrix(0.4347 -0.9006 0.9006 0.4347 242.9313 1687.2048)" style="opacity:0.4;fill:#FFFFFF;" width="267.1" height="102.6"/>
		
			<rect id="_x7B_color:red_x2C_title:Havas_Helia_x2C_description:An_agency_x7D__2_" x="1509.5" y="452.6" transform="matrix(0.4347 -0.9006 0.9006 0.4347 414.5384 1668.1166)" style="opacity:0.4;fill:#FFFFFF;" width="53.1" height="102.6"/>
	</g>
</g>
<g id="Guide" style="display:none;">
	
		<rect id="XMLID_2_" x="191.9" y="108" style="display:inline;fill:none;stroke:#FF0000;stroke-width:10;stroke-miterlimit:10;" width="1920" height="1080"/>
</g>
</svg>
