<svg version="1.1" xmlns="http://www.w3.org/2000/svg" xmlns:xlink="http://www.w3.org/1999/xlink" x="0px" y="0px"
	 viewBox="0 0 1920 1080" style="enable-background:new 0 0 1920 1080;" xml:space="preserve">
<g id="back">
	<rect id="XMLID_1_" style="fill:#050028;" width="1920" height="1077.9"/>
	
		<rect id="XMLID_28_" x="-66.9" y="-189.9" transform="matrix(0.9003 0.4353 -0.4353 0.9003 35.0935 -174.4374)" style="opacity:0.2;fill:#FFFFFF;" width="930.4" height="358.5"/>
	
		<rect id="XMLID_30_" x="-256.2" y="201.6" transform="matrix(0.9003 0.4353 -0.4353 0.9003 186.6289 -53.0226)" style="opacity:0.2;fill:#FFFFFF;" width="930.4" height="358.5"/>
	
		<rect id="XMLID_33_" x="554.9" y="964.5" transform="matrix(0.9003 0.4353 -0.4353 0.9003 574.3547 -219.9726)" style="opacity:0.2;fill:#FFFFFF;" width="424.9" height="358.5"/>
	
		<rect id="XMLID_32_" x="365.6" y="1356.1" transform="matrix(0.9003 0.4353 -0.4353 0.9003 725.8901 -98.5578)" style="opacity:0.2;fill:#FFFFFF;" width="424.9" height="358.5"/>
	
		<rect id="XMLID_34_" x="1374.5" y="427.5" transform="matrix(0.9003 0.4353 -0.4353 0.9003 606.4286 -649.6495)" style="opacity:0.2;fill:#FFFFFF;" width="693.8" height="1142.9"/>
	
		<rect id="XMLID_35_" x="952.3" y="192.6" transform="matrix(0.9003 0.4353 -0.4353 0.9003 248.0088 -664.6582)" style="opacity:0.2;fill:#FFFFFF;" width="1245.2" height="33"/>
</g>
<g id="building">
	<polygon id="outer-wall" style="fill:none;stroke:#FFFFFF;stroke-width:7;stroke-miterlimit:10;" points="1039.4,69.4 1031.4,86 
		1035.9,88.2 1002.5,157.2 998.7,155.4 990.1,173.3 993.9,175.1 966.7,231.4 962.9,229.5 954.3,247.4 958.1,249.3 930.6,306.2 
		926.8,304.3 918.1,322.2 922,324.1 894.8,380.3 891,378.5 882.3,396.4 886.2,398.2 858.7,455.1 854.9,453.3 846.2,471.2 850.1,473 
		822.9,529.3 819.1,527.4 810.4,545.3 814.3,547.2 786.8,604.1 783,602.2 774.3,620.1 778.2,622 750.7,678.9 746.9,677 738.2,694.9 
		742.1,696.8 709,765.2 705.2,763.3 699,776.1 693.2,788.3 701.4,792.2 718.1,800.3 720.6,795.2 789,828.2 786.5,833.3 804.4,842 
		806.9,836.8 863.1,864 860.7,869.1 878.6,877.8 881,872.6 975,918 972.5,923.1 990.4,931.8 992.9,926.7 1049.2,953.8 1046.7,958.9 
		1064.6,967.6 1067.1,962.5 1136.1,995.8 1133.6,1000.9 1145.8,1006.8 1158.6,1012.9 1164.5,1000.7 1170.6,988 1164.9,985.2 
		1198.5,915.5 1203,917.7 1211.6,899.8 1207.1,897.6 1234.3,841.4 1238.8,843.5 1247.4,825.6 1242.9,823.5 1270.4,766.6 
		1274.9,768.7 1283.5,750.8 1279,748.7 1306.2,692.4 1310.7,694.6 1319.3,676.7 1314.8,674.5 1342.3,617.6 1346.8,619.8 
		1355.4,601.9 1351,599.7 1378.1,543.5 1382.6,545.6 1391.2,527.7 1386.8,525.6 1414.2,468.7 1418.7,470.8 1427.3,452.9 
		1422.9,450.8 1450,394.5 1454.5,396.7 1463.1,378.8 1458.7,376.6 1491.7,308.2 1496.8,310.7 1504.8,294.1 1508.8,285.7 
		1496.2,279.6 1483.9,273.7 1481.7,278.2 1413.3,245.2 1415.5,240.7 1397.6,232 1395.4,236.5 1339.2,209.4 1340.8,206 1341.3,204.9 
		1323.4,196.2 1322.2,198.8 1309.4,192.6 1308.5,194.5 1239.4,161.2 1240.4,159.3 1228.2,153.4 1229.5,150.9 1211.6,142.2 
		1211,143.4 1209.4,146.7 1153.1,119.6 1155.3,115.1 1137.4,106.4 1135.2,110.9 1066.2,77.6 1068.4,73.1 1051.8,65.1 1043.4,61.1 	
		"/>
	<g id="inside-walls">
		
			<rect id="XMLID_114_" x="879.4" y="479.3" transform="matrix(0.4347 -0.9006 0.9006 0.4347 122.5084 1295.6971)" style="fill:none;stroke:#FFFFFF;stroke-width:3;stroke-miterlimit:10;" width="428.1" height="142"/>
		
			<rect id="XMLID_136_" x="1030.1" y="719.5" transform="matrix(0.4347 -0.9006 0.9006 0.4347 -68.071 1371.103)" style="fill:none;stroke:#FFFFFF;stroke-width:3;stroke-miterlimit:10;" width="56.1" height="40.6"/>
		
			<rect id="XMLID_16_" x="970.2" y="664.6" transform="matrix(0.4347 -0.9006 0.9006 0.4347 -83.9608 1296.8649)" style="fill:none;stroke:#FFFFFF;stroke-width:3;stroke-miterlimit:10;" width="41.8" height="101.3"/>
		
			<rect id="XMLID_145_" x="1019.3" y="676.2" transform="matrix(0.4347 -0.9006 0.9006 0.4347 -40.9742 1325.6809)" style="fill:none;stroke:#FFFFFF;stroke-width:3;stroke-miterlimit:10;" width="32.4" height="38.5"/>
		
			<rect id="XMLID_149_" x="1079.2" y="639" transform="matrix(0.4347 -0.9006 0.9006 0.4347 24.5865 1359.7673)" style="fill:none;stroke:#FFFFFF;stroke-width:3;stroke-miterlimit:10;" width="32.4" height="42.7"/>
		
			<rect id="XMLID_148_" x="1040.8" y="620.4" transform="matrix(0.4347 -0.9006 0.9006 0.4347 19.5694 1314.6631)" style="fill:none;stroke:#FFFFFF;stroke-width:3;stroke-miterlimit:10;" width="32.4" height="42.7"/>
		
			<rect id="XMLID_150_" x="1002.4" y="601.9" transform="matrix(0.4347 -0.9006 0.9006 0.4347 14.5558 1269.59)" style="fill:none;stroke:#FFFFFF;stroke-width:3;stroke-miterlimit:10;" width="32.4" height="42.7"/>
		
			<rect id="XMLID_151_" x="976.9" y="603.9" transform="matrix(0.4347 -0.9006 0.9006 0.4347 11.2243 1239.6385)" style="fill:none;stroke:#FFFFFF;stroke-width:3;stroke-miterlimit:10;" width="32.4" height="14"/>
		
			<rect id="XMLID_155_" x="1112.9" y="569.1" transform="matrix(0.4347 -0.9006 0.9006 0.4347 106.5988 1350.5823)" style="fill:none;stroke:#FFFFFF;stroke-width:3;stroke-miterlimit:10;" width="32.4" height="42.6"/>
		
			<rect id="XMLID_154_" x="1074.5" y="550.5" transform="matrix(0.4347 -0.9006 0.9006 0.4347 101.5886 1305.5399)" style="fill:none;stroke:#FFFFFF;stroke-width:3;stroke-miterlimit:10;" width="32.4" height="42.7"/>
		
			<rect id="XMLID_153_" x="1036.1" y="532" transform="matrix(0.4347 -0.9006 0.9006 0.4347 96.5751 1260.4668)" style="fill:none;stroke:#FFFFFF;stroke-width:3;stroke-miterlimit:10;" width="32.4" height="42.7"/>
		
			<rect id="XMLID_152_" x="1010.6" y="534" transform="matrix(0.4347 -0.9006 0.9006 0.4347 93.2435 1230.5154)" style="fill:none;stroke:#FFFFFF;stroke-width:3;stroke-miterlimit:10;" width="32.4" height="14"/>
		
			<rect id="XMLID_146_" x="994.2" y="674.9" transform="matrix(0.4347 -0.9006 0.9006 0.4347 -44.2491 1296.2395)" style="fill:none;stroke:#FFFFFF;stroke-width:3;stroke-miterlimit:10;" width="32.4" height="16.9"/>
		
			<rect id="XMLID_147_" x="977.6" y="665.3" transform="matrix(0.4347 -0.9006 0.9006 0.4347 -46.4223 1276.7015)" style="fill:none;stroke:#FFFFFF;stroke-width:3;stroke-miterlimit:10;" width="32.4" height="20"/>
		
			<rect id="XMLID_194_" x="1033.7" y="484.6" transform="matrix(0.4347 -0.9006 0.9006 0.4347 141.7907 1243.5535)" style="fill:none;stroke:#FFFFFF;stroke-width:3;stroke-miterlimit:10;" width="55.6" height="48.4"/>
		
			<rect id="XMLID_195_" x="1093.9" y="495.1" transform="matrix(0.4347 -0.9006 0.9006 0.4347 167.9066 1276.36)" style="fill:none;stroke:#FFFFFF;stroke-width:3;stroke-miterlimit:10;" width="13.6" height="18.7"/>
		
			<rect id="XMLID_196_" x="1118.3" y="498.5" transform="matrix(0.4347 -0.9006 0.9006 0.4347 171.092 1304.9973)" style="fill:none;stroke:#FFFFFF;stroke-width:3;stroke-miterlimit:10;" width="13.6" height="35.5"/>
		
			<rect id="XMLID_54_" x="1051.7" y="401.3" transform="matrix(0.4347 -0.9006 0.9006 0.4347 242.5117 1226.3817)" style="fill:none;stroke:#FFFFFF;stroke-width:3;stroke-miterlimit:10;" width="93" height="37.4"/>
		<polygon id="XMLID_69_" style="fill:none;stroke:#FFFFFF;stroke-width:3;stroke-miterlimit:10;" points="1125.2,460.8 
			1115.6,480.6 1060.9,454.2 1051.6,473.3 1179.5,535.1 1188.8,516 1152.7,498.5 1162.2,478.7 		"/>
		
			<rect id="XMLID_68_" x="1127.7" y="423.7" transform="matrix(0.4347 -0.9006 0.9006 0.4347 253.2942 1292.1666)" style="fill:none;stroke:#FFFFFF;stroke-width:3;stroke-miterlimit:10;" width="56.4" height="41.2"/>
		
			<rect id="XMLID_12_" x="1159.8" y="469.8" transform="matrix(0.4347 -0.9006 0.9006 0.4347 247.9074 1349.6478)" style="fill:none;stroke:#FFFFFF;stroke-width:3;stroke-miterlimit:10;" width="78.5" height="15.1"/>
		
			<rect id="XMLID_3_" x="1144.6" y="517.4" transform="matrix(0.4347 -0.9006 0.9006 0.4347 174.526 1335.8688)" style="fill:none;stroke:#FFFFFF;stroke-width:3;stroke-miterlimit:10;" width="13.6" height="23.1"/>
		
			<rect id="XMLID_10_" x="1162.4" y="529.3" transform="matrix(0.4347 -0.9006 0.9006 0.4347 176.8475 1356.7401)" style="fill:none;stroke:#FFFFFF;stroke-width:3;stroke-miterlimit:10;" width="13.6" height="16.4"/>
	</g>
	<g id="highlights">
		
			<rect id="_x7B_color:red_x2C_title:Havas_London_x2C_description:An_agency_x7D_" x="1082.6" y="799.5" transform="matrix(0.4347 -0.9006 0.9006 0.4347 -87.1266 1539.6671)" style="opacity:0.4;fill:#FFFFFF;" width="200.5" height="79.5"/>
		
			<rect id="room_7" x="766.2" y="703.9" transform="matrix(0.4347 -0.9006 0.9006 0.4347 -259.1501 1165.1117)" style="opacity:0.4;fill:#FFFFFF;" width="64.7" height="170.3"/>
		
			<rect id="room_6" x="851.8" y="519.6" transform="matrix(0.4347 -0.9006 0.9006 0.4347 -35.4065 1125.4508)" style="opacity:0.4;fill:#FFFFFF;" width="54" height="142.6"/>
		
			<rect id="room_5" x="821.5" y="700.1" transform="matrix(0.4347 -0.9006 0.9006 0.4347 -166.3388 1192.0197)" style="opacity:0.4;fill:#FFFFFF;" width="89.7" height="56.8"/>
		
			<rect id="room_4" x="870.1" y="757.1" transform="matrix(0.4347 -0.9006 0.9006 0.4347 -179.0847 1279.2756)" style="opacity:0.4;fill:#FFFFFF;" width="118.8" height="50.5"/>
		<polygon id="room_3" style="opacity:0.4;fill:#FFFFFF;" points="784.3,623.2 776.1,640.1 756.3,681.2 800.4,702.5 820.2,661.6 
			845.7,673.9 870.7,622.1 801,588.5 		"/>
		
			<rect id="room_2" x="1180" y="490.8" transform="matrix(0.4347 -0.9006 0.9006 0.4347 254.2755 1489.3519)" style="opacity:0.4;fill:#FFFFFF;" width="267.1" height="102.6"/>
		
			<rect id="_x7B_color:red_x2C_title:Havas_Helia_x2C_description:An_agency_x7D_" x="1357.6" y="344.6" transform="matrix(0.4347 -0.9006 0.9006 0.4347 425.8826 1470.2638)" style="opacity:0.4;fill:#FFFFFF;" width="53.1" height="102.6"/>
	</g>
</g>
</svg>
